<svg version="1.1" id="Layer_1" xmlns="http://www.w3.org/2000/svg" xmlns:xlink="http://www.w3.org/1999/xlink" x="0px" y="0px"
	 width="100%" viewBox="0 0 129 129" enable-background="new 0 0 129 129" xml:space="preserve">
<path fill="#24527A" opacity="1.000000" stroke="none" 
	d="
M130.000000,48.000000 
	C130.000000,59.354229 130.000000,70.708458 129.626526,82.472733 
	C128.722458,83.845688 128.036011,84.755096 127.684296,85.779442 
	C121.029579,105.161240 108.008446,118.469826 89.232407,126.390038 
	C87.037834,127.315758 85.071922,128.783524 83.000000,130.000000 
	C71.645775,130.000000 60.291546,130.000000 48.528454,129.627106 
	C46.543076,128.483643 45.014149,127.589417 43.382710,126.961586 
	C26.337982,120.402374 13.528510,109.330887 6.077963,92.390808 
	C4.650013,89.144119 2.705956,86.124420 1.000000,83.000000 
	C1.000000,71.645775 1.000000,60.291546 1.373474,48.526802 
	C2.202163,47.300499 2.787531,46.530571 3.093521,45.662197 
	C10.391154,24.952003 24.286266,10.828186 45.008774,3.422820 
	C46.148857,3.015401 47.009361,1.825617 48.000000,1.000000 
	C59.354229,1.000000 70.708458,1.000000 82.468399,1.370062 
	C83.523430,2.171470 84.117241,2.760956 84.830124,3.011176 
	C106.037445,10.454823 120.411636,24.731607 127.964066,45.914856 
	C128.260468,46.746189 129.304382,47.311001 130.000000,48.000000 
M91.175987,59.979805 
	C88.758232,61.719227 85.946243,63.108574 84.016678,65.281502 
	C81.238853,68.409668 79.102676,72.107628 76.692657,75.562408 
	C76.270996,75.464729 75.849342,75.367050 75.427681,75.269371 
	C75.162392,71.327759 74.897095,67.386147 74.525749,61.868843 
	C72.416992,64.045235 70.245293,65.236420 70.203362,66.498375 
	C69.906113,75.444115 70.045181,84.404358 70.045181,93.297806 
	C73.260368,94.398323 75.513618,94.082497 74.918350,90.655235 
	C73.949081,85.074631 77.405785,81.945183 80.804420,78.001945 
	C83.049026,80.913406 85.107437,83.463905 87.034340,86.110161 
	C90.079132,90.291656 90.041801,90.318840 95.673370,87.800873 
	C91.795753,82.784134 87.991043,77.861717 84.214767,72.976089 
	C87.112717,68.773499 89.912178,64.713760 93.064476,60.311405 
	C93.072655,59.940243 93.080841,59.569077 93.089020,59.197910 
	C92.702988,59.438141 92.316956,59.678371 91.175987,59.979805 
M37.003536,87.469887 
	C37.003536,91.871063 37.003536,96.272247 37.003536,101.579498 
	C42.488342,100.096306 48.392853,98.923798 53.986320,96.894119 
	C64.009972,93.256866 64.695610,79.953789 60.460052,72.429665 
	C59.479298,70.687431 56.446415,69.285507 54.291576,69.187782 
	C49.724960,68.980667 45.053009,69.416634 40.558800,70.285118 
	C39.155582,70.556282 37.377102,72.959206 37.174744,74.563438 
	C36.680473,78.481781 37.006836,82.503639 37.003536,87.469887 
M71.048386,43.978249 
	C71.043831,42.314728 70.869621,40.631062 71.064362,38.991211 
	C71.866798,32.234512 77.589531,28.178085 82.743950,31.040232 
	C85.813972,32.744949 87.741180,32.213234 90.173401,29.519119 
	C88.521507,28.354574 87.190018,27.138283 85.637276,26.367998 
	C77.760773,22.460619 66.318298,28.031429 64.711151,39.265415 
	C63.529125,47.527771 67.010483,54.645725 74.326538,56.666485 
	C80.032921,58.242638 89.865921,54.559299 91.202606,46.632946 
	C88.191742,44.422039 86.280678,44.979610 84.029778,48.218140 
	C80.312950,53.565819 76.317558,53.251019 72.596069,47.942909 
	C71.943939,47.012741 71.623367,45.850105 71.048386,43.978249 
M51.931465,59.926540 
	C49.887657,48.345562 57.296684,39.755219 61.943916,30.027924 
	C52.000774,29.125652 54.614311,40.154560 49.222305,42.672256 
	C44.866856,40.635921 45.588554,31.410606 36.890999,35.591854 
	C43.362759,43.626167 48.497753,51.835300 45.315842,63.501427 
	C48.399101,62.210548 50.099518,61.498631 51.931465,59.926540 
z"/>
<path fill="#000000" opacity="1.000000" stroke="none" 
	d="
M130.000000,47.531342 
	C129.304382,47.311001 128.260468,46.746189 127.964066,45.914856 
	C120.411636,24.731607 106.037445,10.454823 84.830124,3.011176 
	C84.117241,2.760956 83.523430,2.171470 82.937057,1.370062 
	C98.593391,1.000000 114.186775,1.000000 130.000000,1.000000 
	C130.000000,16.353529 130.000000,31.708105 130.000000,47.531342 
z"/>
<path fill="#000000" opacity="1.000000" stroke="none" 
	d="
M47.531342,1.000000 
	C47.009361,1.825617 46.148857,3.015401 45.008774,3.422820 
	C24.286266,10.828186 10.391154,24.952003 3.093521,45.662197 
	C2.787531,46.530571 2.202163,47.300499 1.373474,48.058144 
	C1.000000,32.406612 1.000000,16.813225 1.000000,1.000000 
	C16.353529,1.000000 31.708105,1.000000 47.531342,1.000000 
z"/>
<path fill="#000000" opacity="1.000000" stroke="none" 
	d="
M83.468658,130.000000 
	C85.071922,128.783524 87.037834,127.315758 89.232407,126.390038 
	C108.008446,118.469826 121.029579,105.161240 127.684296,85.779442 
	C128.036011,84.755096 128.722458,83.845688 129.626526,82.941391 
	C130.000000,98.593391 130.000000,114.186775 130.000000,130.000000 
	C114.646469,130.000000 99.291893,130.000000 83.468658,130.000000 
z"/>
<path fill="#000000" opacity="1.000000" stroke="none" 
	d="
M1.000000,83.468658 
	C2.705956,86.124420 4.650013,89.144119 6.077963,92.390808 
	C13.528510,109.330887 26.337982,120.402374 43.382710,126.961586 
	C45.014149,127.589417 46.543076,128.483643 48.059795,129.627106 
	C32.406609,130.000000 16.813219,130.000000 1.000000,130.000000 
	C1.000000,114.646469 1.000000,99.291893 1.000000,83.468658 
z"/>
<path fill="#000000" opacity="1.000000" stroke="none" 
	d="
M37.003189,86.976852 
	C37.006836,82.503639 36.680473,78.481781 37.174744,74.563438 
	C37.377102,72.959206 39.155582,70.556282 40.558800,70.285118 
	C45.053009,69.416634 49.724960,68.980667 54.291576,69.187782 
	C56.446415,69.285507 59.479298,70.687431 60.460052,72.429665 
	C64.695610,79.953789 64.009972,93.256866 53.986320,96.894119 
	C48.392853,98.923798 42.488342,100.096306 37.003536,101.579498 
	C37.003536,96.272247 37.003536,91.871063 37.003189,86.976852 
M50.009796,93.857117 
	C56.552246,91.124924 58.300251,83.080154 55.251614,76.672302 
	C53.292492,72.554474 50.849144,72.185493 43.320583,74.876297 
	C42.875469,81.346069 42.429249,87.831978 41.919205,95.245522 
	C44.909058,94.743660 47.071747,94.380638 50.009796,93.857117 
z"/>
<path fill="#000000" opacity="1.000000" stroke="none" 
	d="
M92.711632,60.654018 
	C89.912178,64.713760 87.112717,68.773499 84.214767,72.976089 
	C87.991043,77.861717 91.795753,82.784134 95.673370,87.800873 
	C90.041801,90.318840 90.079132,90.291656 87.034340,86.110161 
	C85.107437,83.463905 83.049026,80.913406 80.804420,78.001945 
	C77.405785,81.945183 73.949081,85.074631 74.918350,90.655235 
	C75.513618,94.082497 73.260368,94.398323 70.045181,93.297806 
	C70.045181,84.404358 69.906113,75.444115 70.203362,66.498375 
	C70.245293,65.236420 72.416992,64.045235 74.525749,61.868843 
	C74.897095,67.386147 75.162392,71.327759 75.427681,75.269371 
	C75.849342,75.367050 76.270996,75.464729 76.692657,75.562408 
	C79.102676,72.107628 81.238853,68.409668 84.016678,65.281502 
	C85.946243,63.108574 88.758232,61.719227 91.748520,60.133179 
	C92.451248,60.409039 92.581444,60.531528 92.711632,60.654018 
z"/>
<path fill="#000000" opacity="1.000000" stroke="none" 
	d="
M71.099030,44.386539 
	C71.623367,45.850105 71.943939,47.012741 72.596069,47.942909 
	C76.317558,53.251019 80.312950,53.565819 84.029778,48.218140 
	C86.280678,44.979610 88.191742,44.422039 91.202606,46.632946 
	C89.865921,54.559299 80.032921,58.242638 74.326538,56.666485 
	C67.010483,54.645725 63.529125,47.527771 64.711151,39.265415 
	C66.318298,28.031429 77.760773,22.460619 85.637276,26.367998 
	C87.190018,27.138283 88.521507,28.354574 90.173401,29.519119 
	C87.741180,32.213234 85.813972,32.744949 82.743950,31.040232 
	C77.589531,28.178085 71.866798,32.234512 71.064362,38.991211 
	C70.869621,40.631062 71.043831,42.314728 71.099030,44.386539 
z"/>
<path fill="#000000" opacity="1.000000" stroke="none" 
	d="
M51.865700,60.356625 
	C50.099518,61.498631 48.399101,62.210548 45.315842,63.501427 
	C48.497753,51.835300 43.362759,43.626167 36.890999,35.591854 
	C45.588554,31.410606 44.866856,40.635921 49.222305,42.672256 
	C54.614311,40.154560 52.000774,29.125652 61.943916,30.027924 
	C57.296684,39.755219 49.887657,48.345562 51.865700,60.356625 
z"/>
<path fill="#000000" opacity="1.000000" stroke="none" 
	d="
M92.125984,60.102573 
	C92.316956,59.678371 92.702988,59.438141 93.089020,59.197914 
	C93.080841,59.569077 93.072655,59.940243 92.888054,60.482712 
	C92.581444,60.531528 92.451248,60.409039 92.125984,60.102573 
z"/>
<path fill="#23537A" opacity="1.000000" stroke="none" 
	d="
M49.622116,93.937370 
	C47.071747,94.380638 44.909058,94.743660 41.919205,95.245522 
	C42.429249,87.831978 42.875469,81.346069 43.320583,74.876297 
	C50.849144,72.185493 53.292492,72.554474 55.251614,76.672302 
	C58.300251,83.080154 56.552246,91.124924 49.622116,93.937370 
z"/>
</svg>