<svg version="1.1" id="Layer_1" xmlns="http://www.w3.org/2000/svg" xmlns:xlink="http://www.w3.org/1999/xlink" x="0px" y="0px"
	 width="100%" viewBox="0 0 303 67" enable-background="new 0 0 303 67" xml:space="preserve">
<path fill="#24527A" opacity="1.000000" stroke="none" 
	d="
M1.000000,59.000000 
	C1.000000,42.979103 1.000000,26.958210 1.344535,10.598297 
	C4.792713,7.172853 7.896357,4.086426 11.000000,1.000000 
	C105.020897,1.000000 199.041794,1.000000 293.444153,1.355021 
	C297.217102,4.473362 300.608551,7.236681 304.000000,10.000000 
	C304.000000,26.020895 304.000000,42.041790 303.656067,58.401592 
	C300.541412,61.827003 297.770721,64.913506 295.000000,68.000000 
	C200.645767,68.000000 106.291542,68.000000 11.556279,67.645752 
	C7.783496,64.527664 4.391748,61.763832 1.000000,59.000000 
M105.040970,43.172073 
	C104.582932,48.012054 107.468658,47.044693 110.485443,46.484028 
	C110.647865,43.528419 110.795715,40.837990 111.009354,36.950550 
	C112.612190,39.318977 113.573578,40.590229 114.376167,41.954876 
	C116.389801,45.378651 118.338142,45.770409 120.447762,42.031773 
	C121.339890,40.450752 122.399681,38.964336 123.383263,37.434917 
	C123.766075,37.586369 124.148880,37.737816 124.531693,37.889267 
	C124.531693,40.795506 124.531693,43.701744 124.531693,46.972301 
	C126.645020,46.806519 128.197418,46.684738 129.755920,46.562481 
	C129.755920,39.480503 129.755920,32.893536 129.755920,25.992041 
	C120.831650,24.503580 122.406799,34.593853 117.069244,36.990772 
	C115.500748,34.466438 113.792618,32.008892 112.392387,29.386923 
	C110.796700,26.398943 108.902130,24.585770 105.040497,26.450903 
	C105.040497,31.656355 105.040497,36.949169 105.040970,43.172073 
M169.700500,43.929108 
	C171.817001,45.124836 173.933502,46.320568 176.723480,47.896782 
	C176.723480,39.521519 176.723480,32.803127 176.723480,25.721720 
	C174.679810,25.850872 172.976227,25.958530 170.812653,26.095259 
	C170.812653,29.650826 170.812653,32.665920 170.812653,35.773781 
	C165.478668,33.147346 164.855331,24.568979 157.047989,25.975178 
	C157.047989,33.159115 157.047989,39.874733 157.047989,46.896210 
	C159.001007,46.802238 160.575928,46.726456 162.319138,46.642578 
	C162.423813,45.469631 162.378479,44.628437 162.592422,43.859375 
	C163.048157,42.221119 163.638474,40.620304 164.173660,39.004147 
	C165.422119,39.948898 166.697647,40.860741 167.906143,41.854103 
	C168.411133,42.269188 168.773727,42.857494 169.700500,43.929108 
M198.882126,45.442867 
	C205.053955,39.880066 201.382721,32.735546 202.499313,26.111265 
	C200.267151,26.111265 198.575714,26.111265 196.591980,26.111265 
	C196.591980,29.272726 196.691330,32.077427 196.565628,34.872002 
	C196.423752,38.026062 197.431473,42.278458 192.310577,42.195675 
	C187.612579,42.119736 188.396973,38.154049 188.310867,35.100777 
	C188.227646,32.150166 188.292847,29.195370 188.292847,26.032555 
	C186.104599,26.032555 184.375061,26.032555 182.217300,26.032555 
	C182.217300,29.251949 182.206329,32.199757 182.219284,35.147453 
	C182.265457,45.649715 188.286514,49.666637 198.882126,45.442867 
M135.451782,44.371605 
	C136.060272,45.189960 136.635986,46.686317 137.282547,46.717594 
	C141.771530,46.934753 146.279358,46.944080 150.769791,46.753094 
	C151.437637,46.724689 152.554276,45.283165 152.539246,44.513443 
	C152.524063,43.736633 151.431931,42.420128 150.683884,42.322918 
	C148.388229,42.024597 146.013840,42.356602 143.707443,42.103310 
	C142.867111,42.011028 142.131927,40.961285 141.348770,40.348373 
	C142.090927,39.671368 142.775955,38.505169 143.586105,38.410545 
	C145.869934,38.143814 148.205185,38.317348 150.871536,38.317348 
	C150.778580,36.706356 150.709351,35.506596 150.643539,34.365948 
	C141.998657,33.690910 141.998657,33.690910 141.324554,30.497335 
	C144.802368,30.342390 148.221695,30.190050 153.293091,29.964108 
	C151.802719,28.005835 151.014359,25.986008 150.091400,25.922503 
	C145.340637,25.595638 140.555344,25.770952 135.440338,25.770952 
	C135.440338,32.097233 135.440338,37.743736 135.451782,44.371605 
z"/>
<path fill="#000000" opacity="1.000000" stroke="none" 
	d="
M304.000000,9.508952 
	C300.608551,7.236681 297.217102,4.473362 293.912842,1.355021 
	C297.246460,1.000000 300.492950,1.000000 304.000000,1.000000 
	C304.000000,3.669701 304.000000,6.343802 304.000000,9.508952 
z"/>
<path fill="#000000" opacity="1.000000" stroke="none" 
	d="
M10.513435,1.000000 
	C7.896357,4.086426 4.792713,7.172853 1.344535,10.129640 
	C1.000000,7.076724 1.000000,4.153447 1.000000,1.000000 
	C4.006850,1.000000 7.016860,1.000000 10.513435,1.000000 
z"/>
<path fill="#000000" opacity="1.000000" stroke="none" 
	d="
M1.000000,59.491051 
	C4.391748,61.763832 7.783496,64.527664 11.087622,67.645752 
	C7.753531,68.000000 4.507062,68.000000 1.000000,68.000000 
	C1.000000,65.330299 1.000000,62.656197 1.000000,59.491051 
z"/>
<path fill="#000000" opacity="1.000000" stroke="none" 
	d="
M295.491058,68.000000 
	C297.770721,64.913506 300.541412,61.827003 303.656067,58.870251 
	C304.000000,61.917351 304.000000,64.834702 304.000000,68.000000 
	C301.330017,68.000000 298.656067,68.000000 295.491058,68.000000 
z"/>
<path fill="#EEF2F5" opacity="1.000000" stroke="none" 
	d="
M105.040733,42.707027 
	C105.040497,36.949169 105.040497,31.656355 105.040497,26.450903 
	C108.902130,24.585770 110.796700,26.398943 112.392387,29.386923 
	C113.792618,32.008892 115.500748,34.466438 117.069244,36.990772 
	C122.406799,34.593853 120.831650,24.503580 129.755920,25.992041 
	C129.755920,32.893536 129.755920,39.480503 129.755920,46.562481 
	C128.197418,46.684738 126.645020,46.806519 124.531693,46.972301 
	C124.531693,43.701744 124.531693,40.795506 124.531693,37.889267 
	C124.148880,37.737816 123.766075,37.586369 123.383263,37.434917 
	C122.399681,38.964336 121.339890,40.450752 120.447762,42.031773 
	C118.338142,45.770409 116.389801,45.378651 114.376167,41.954876 
	C113.573578,40.590229 112.612190,39.318977 111.009354,36.950550 
	C110.795715,40.837990 110.647865,43.528419 110.485443,46.484028 
	C107.468658,47.044693 104.582932,48.012054 105.040733,42.707027 
z"/>
<path fill="#F2F4F7" opacity="1.000000" stroke="none" 
	d="
M169.450775,43.648075 
	C168.773727,42.857494 168.411133,42.269188 167.906143,41.854103 
	C166.697647,40.860741 165.422119,39.948898 164.173660,39.004147 
	C163.638474,40.620304 163.048157,42.221119 162.592422,43.859375 
	C162.378479,44.628437 162.423813,45.469631 162.319138,46.642578 
	C160.575928,46.726456 159.001007,46.802238 157.047989,46.896210 
	C157.047989,39.874733 157.047989,33.159115 157.047989,25.975178 
	C164.855331,24.568979 165.478668,33.147346 170.812653,35.773781 
	C170.812653,32.665920 170.812653,29.650826 170.812653,26.095259 
	C172.976227,25.958530 174.679810,25.850872 176.723480,25.721720 
	C176.723480,32.803127 176.723480,39.521519 176.723480,47.896782 
	C173.933502,46.320568 171.817001,45.124836 169.450775,43.648075 
z"/>
<path fill="#F5F7F9" opacity="1.000000" stroke="none" 
	d="
M198.570267,45.648792 
	C188.286514,49.666637 182.265457,45.649715 182.219284,35.147453 
	C182.206329,32.199757 182.217300,29.251949 182.217300,26.032555 
	C184.375061,26.032555 186.104599,26.032555 188.292847,26.032555 
	C188.292847,29.195370 188.227646,32.150166 188.310867,35.100777 
	C188.396973,38.154049 187.612579,42.119736 192.310577,42.195675 
	C197.431473,42.278458 196.423752,38.026062 196.565628,34.872002 
	C196.691330,32.077427 196.591980,29.272726 196.591980,26.111265 
	C198.575714,26.111265 200.267151,26.111265 202.499313,26.111265 
	C201.382721,32.735546 205.053955,39.880066 198.570267,45.648792 
z"/>
<path fill="#F4F6F8" opacity="1.000000" stroke="none" 
	d="
M135.446060,43.880920 
	C135.440338,37.743736 135.440338,32.097233 135.440338,25.770952 
	C140.555344,25.770952 145.340637,25.595638 150.091400,25.922503 
	C151.014359,25.986008 151.802719,28.005835 153.293091,29.964108 
	C148.221695,30.190050 144.802368,30.342390 141.324554,30.497335 
	C141.998657,33.690910 141.998657,33.690910 150.643539,34.365948 
	C150.709351,35.506596 150.778580,36.706356 150.871536,38.317348 
	C148.205185,38.317348 145.869934,38.143814 143.586105,38.410545 
	C142.775955,38.505169 142.090927,39.671368 141.348770,40.348373 
	C142.131927,40.961285 142.867111,42.011028 143.707443,42.103310 
	C146.013840,42.356602 148.388229,42.024597 150.683884,42.322918 
	C151.431931,42.420128 152.524063,43.736633 152.539246,44.513443 
	C152.554276,45.283165 151.437637,46.724689 150.769791,46.753094 
	C146.279358,46.944080 141.771530,46.934753 137.282547,46.717594 
	C136.635986,46.686317 136.060272,45.189960 135.446060,43.880920 
z"/>
</svg>