<svg width="354" height="354" viewBox="0 0 354 354" fill="none" xmlns="http://www.w3.org/2000/svg">
<path d="M143.356 202.811C140.726 200.783 138.095 200.181 136.945 200.071C134.533 199.687 132.287 199.687 127.41 200.729L116.998 202.921L116.176 256.843L125.437 254.925C132.396 253.445 139.191 251.527 143.74 245.664C147.192 241.006 152.836 229.553 149.493 214.045C148.123 207.414 145.822 204.674 143.301 202.866" fill="#24547C" fill-opacity="0.8"/>
<path d="M243.635 246.978L218.811 213.496L205.879 231.415L205.605 254.979L185.713 259.143L187.028 171.575L206.811 167.41L206.317 203.358L235.58 161.382L260.459 156.176L230.867 197.221L265.555 242.375L243.635 246.978ZM173.109 123.9C171.959 118.365 171.849 113.653 171.904 111.57C172.068 99.8981 176.397 87.13 184.343 78.417C192.892 69.2108 203.906 66.2517 208.181 65.3749C218.866 63.2378 226.922 65.1557 230.758 66.4709C234.155 67.5121 237.333 69.0464 240.183 71.2932C244.019 74.3071 246.156 77.4307 248.786 81.5954L229.716 90.3084C228.456 88.3356 227.853 87.3492 227.031 86.4177C225.223 84.1709 220.072 79.8418 212.016 81.5406C208.454 82.2529 202.207 84.8285 198.098 92.9935C195.906 97.2678 192.508 107.022 195.084 119.242C198.481 134.969 208.345 138.97 215.578 137.435C218.044 136.887 222.647 135.079 226.483 129.818C229.662 125.544 230.758 121.763 231.908 116.831L251.362 122.914C249.937 127.407 249.444 128.996 248.293 131.353C245.389 137.545 237.443 150.916 218.757 154.971C214.976 155.793 204.564 157.327 193.878 152.505C182.151 147.299 175.685 136.559 173.055 123.955M151.409 262.979C145.6 266.541 139.901 268.733 126.256 271.583L95.569 277.994L97.1034 190.371L130.147 183.466C132.394 182.973 134.586 182.918 136.778 182.699C145.929 182.042 151.354 183.85 154.971 185.658C160.78 188.508 167.684 194.481 170.863 209.55C175.192 230.264 169.164 252.074 151.409 262.979ZM114.913 87.0204L132.832 114.694L148.45 80.0062L172.013 75.0743L142.696 131.681L142.148 168.616L121.434 172.945L121.872 133.271L94.1443 91.3495L114.858 87.0204H114.913ZM177 0C79.239 0 0 79.239 0 177C0 274.761 79.239 354 177 354C274.761 354 354 274.761 354 177C354 79.239 274.761 0 177 0Z" fill="#24547C" fill-opacity="0.8"/>
</svg>
